#N canvas 792 46 646 263 10;
#X declare -path util;
#X declare -path entities;
#N canvas 0 46 790 852 mixing 1;
#X obj 30 63 catch~ front.l;
#X obj 40 107 *~;
#X obj 30 85 *~;
#X obj 65 85 r~ volume;
#X obj 75 107 r~ blur.amount;
#X obj 80 197 *~;
#X obj 70 175 *~;
#X obj 105 175 r~ volume;
#X obj 115 197 r~ blur.amount;
#X obj 70 153 catch~ back.l;
#X obj 290 111 *~;
#X obj 280 89 *~;
#X obj 315 89 r~ volume;
#X obj 325 111 r~ blur.amount;
#X obj 330 201 *~;
#X obj 320 179 *~;
#X obj 355 179 r~ volume;
#X obj 365 201 r~ blur.amount;
#X obj 280 67 catch~ front.r;
#X obj 320 157 catch~ back.r;
#X obj 27 359 dac~ 1 3;
#X obj 274 356 dac~ 2 4;
#X obj 40 129 mono-blur~ 75 0.95 5000;
#X obj 290 133 mono-blur~ 75 0.95 5000;
#X obj 80 219 mono-blur~ 60 0.95 5000;
#X obj 329 223 mono-blur~ 60 0.95 5000;
#X obj 396 398 loadbang;
#X obj 58 673 channel~ blimp;
#X obj 56 644 channel~ rocket;
#X obj 55 616 channel~ pulse;
#X obj 53 592 channel~ pulsar;
#X obj 54 566 channel~ blimp-explosion;
#X obj 54 546 channel~ rocket-explosion;
#X obj 205 446 s~ blur.amount;
#X obj 211 498 s~ volume;
#X obj 205 424 sig~ 1;
#X obj 328 295 lop~ 2000;
#X obj 69 304 lop~ 2000;
#X msg 396 422 \; rocket-explosion.volume 0.75 \; blimp-explosion.volume
1 \; pulsar.volume 1 \; pulse.volume 1 \; rocket.volume 0.75 \; blimp.volume
1 \;;
#X obj 211 476 sig~ 0.1;
#X connect 0 0 2 0;
#X connect 1 0 22 0;
#X connect 2 0 1 0;
#X connect 2 0 20 0;
#X connect 3 0 2 1;
#X connect 4 0 1 1;
#X connect 5 0 24 0;
#X connect 6 0 5 0;
#X connect 6 0 37 0;
#X connect 7 0 6 1;
#X connect 8 0 5 1;
#X connect 9 0 6 0;
#X connect 10 0 23 0;
#X connect 11 0 10 0;
#X connect 11 0 21 0;
#X connect 12 0 11 1;
#X connect 13 0 10 1;
#X connect 15 0 14 0;
#X connect 15 0 36 0;
#X connect 16 0 15 1;
#X connect 17 0 14 1;
#X connect 18 0 11 0;
#X connect 19 0 15 0;
#X connect 22 0 20 0;
#X connect 23 0 21 0;
#X connect 24 0 37 0;
#X connect 25 0 36 0;
#X connect 26 0 38 0;
#X connect 35 0 33 0;
#X connect 36 0 21 0;
#X connect 37 0 20 0;
#X connect 39 0 34 0;
#X restore 21 55 pd mixing;
#N canvas 0 50 790 852 virt-input 0;
#X obj 24 25 netreceive -u -b 6666;
#X obj 24 47 oscparse;
#X obj 24 69 list trim;
#X obj 24 319 s pulsar;
#X obj 42 292 s pulse;
#X obj 61 265 s node;
#X obj 79 238 s rocket;
#X obj 98 211 s blimp;
#X obj 116 184 s rocket-explosion;
#X obj 135 157 s blimp-explosion;
#X obj 24 90 route pulsar pulse node rocket blimp rocket-explosion
blimp-explosion, f 19;
#X obj 23 369 r pulsar;
#X msg 23 396 \; pulsar.\$1 \$2 \$3;
#X obj 24 443 r pulse;
#X msg 24 465 \; pulse.\$1 \$2 \$3;
#X obj 20 511 r rocket;
#X msg 19 538 \; rocket.\$1 \$2 \$3;
#X obj 181 325 t a b;
#X obj 181 407 list prepend;
#X obj 262 356 i;
#X obj 295 357 + 1;
#X obj 262 378 mod 8;
#X obj 181 303 r blimp-explosion;
#X msg 181 429 \; blimp-explosion.\$1 \$2 \$3 \$4 \$5 \;;
#X obj 21 579 r blimp;
#X msg 20 606 \; blimp.\$1 \$2 \$3;
#X obj 185 484 r rocket-explosion;
#X obj 185 506 t a b;
#X obj 185 588 list prepend;
#X obj 266 537 i;
#X obj 299 538 + 1;
#X msg 185 610 \; rocket-explosion.\$1 \$2 \$3 \$4 \$5 \;;
#X obj 266 559 mod 8;
#X connect 0 0 1 0;
#X connect 1 0 2 0;
#X connect 2 0 10 0;
#X connect 10 0 3 0;
#X connect 10 1 4 0;
#X connect 10 3 6 0;
#X connect 10 4 7 0;
#X connect 10 5 8 0;
#X connect 10 6 9 0;
#X connect 11 0 12 0;
#X connect 13 0 14 0;
#X connect 15 0 16 0;
#X connect 17 0 18 0;
#X connect 17 1 19 0;
#X connect 18 0 23 0;
#X connect 19 0 20 0;
#X connect 19 0 21 0;
#X connect 20 0 19 1;
#X connect 21 0 18 1;
#X connect 22 0 17 0;
#X connect 24 0 25 0;
#X connect 26 0 27 0;
#X connect 27 0 28 0;
#X connect 27 1 29 0;
#X connect 28 0 31 0;
#X connect 29 0 30 0;
#X connect 29 0 32 0;
#X connect 30 0 29 1;
#X connect 32 0 28 1;
#X restore 21 28 pd virt-input;
#X obj 195 230 entities/pulsar~ 0;
#X obj 21 82 util/env;
#X msg 24 198 create;
#X msg 84 198 detroy;
#X obj 23 109 declare -path util;
#X obj 23 129 declare -path entities;
#X obj 24 234 collection pulse~ 8;
#X obj 24 173 loadbang;
#X obj 25 418 collection rocket~ 64;
#X obj 192 330 collection blimp-explosion~ 8;
#X obj 195 419 collection rocket-explosion~ 14;
#X obj 27 329 collection blimp~ 16;
#X msg 25 387 create;
#X msg 85 387 detroy;
#X obj 25 362 loadbang;
#X msg 27 297 create;
#X msg 87 297 detroy;
#X obj 27 272 loadbang;
#X msg 192 300 create;
#X msg 252 300 detroy;
#X obj 192 275 loadbang;
#X msg 195 386 create;
#X msg 255 386 detroy;
#X obj 195 361 loadbang;
#X obj 284 109 del 15;
#X msg 284 131 \; pd dsp 1 \;;
#X obj 284 82 loadbang;
#X connect 4 0 8 0;
#X connect 5 0 8 0;
#X connect 9 0 4 0;
#X connect 14 0 10 0;
#X connect 15 0 10 0;
#X connect 16 0 14 0;
#X connect 17 0 13 0;
#X connect 18 0 13 0;
#X connect 19 0 17 0;
#X connect 20 0 11 0;
#X connect 21 0 11 0;
#X connect 22 0 20 0;
#X connect 23 0 12 0;
#X connect 24 0 12 0;
#X connect 25 0 23 0;
#X connect 26 0 27 0;
#X connect 28 0 26 0;
