#N canvas 0 46 862 852 10;
#N canvas 864 46 574 263 collection 1;
#X obj 0 0 entities/pulse~ 0;
#X obj 0 20 entities/pulse~ 1;
#X obj 0 40 entities/pulse~ 2;
#X obj 0 60 entities/pulse~ 3;
#X obj 0 80 entities/pulse~ 4;
#X obj 0 100 entities/pulse~ 5;
#X obj 0 120 entities/pulse~ 6;
#X obj 0 140 entities/pulse~ 7;
#X restore 269 64 pd collection;
#X msg 72 102 8;
#X obj 72 134 t f b b;
#X msg 135 121 \; pd-collection clear \;;
#X obj 72 222 i;
#X obj 107 222 + 1;
#X msg 95 191 0;
#X obj 72 244 t f f;
#X obj 104 266 * 20;
#X obj 74 306 pack f f;
#X msg 74 331 \; pd-collection obj 0 \$2 entities/pulse~ \$1 \;;
#X obj 72 156 until;
#X obj 72 63 inlet;
#X obj 134 82 inlet;
#X connect 1 0 2 0;
#X connect 2 0 11 0;
#X connect 2 1 6 0;
#X connect 2 2 3 0;
#X connect 4 0 5 0;
#X connect 4 0 7 0;
#X connect 5 0 4 1;
#X connect 6 0 4 1;
#X connect 7 0 9 0;
#X connect 7 1 8 0;
#X connect 8 0 9 1;
#X connect 9 0 10 0;
#X connect 11 0 4 0;
#X connect 12 0 1 0;
#X connect 13 0 3 0;
