#N canvas 0 46 718 852 10;
#X declare -path ../util;
#X obj 36 100 unpack f f f f;
#X obj 36 258 s \$0.x;
#X obj 86 231 s \$0.y;
#X obj 141 177 s \$0.speed;
#X obj 109 204 s \$0.z;
#X obj 280 143 r \$0.x;
#X obj 267 275 throw~ blimp-explosion.front.r;
#X obj 240 302 throw~ blimp-explosion.front.l;
#X obj 36 73 r blimp-explosion.\$1;
#X obj 36 127 / 640;
#X obj 36 149 max 0;
#X obj 36 171 min 1;
#X obj 86 149 max 0;
#X obj 86 171 min 1;
#X obj 86 127 / 480;
#X obj 33 27 declare -path ../util;
#X obj 241 193 spatializer~;
#X obj 332 143 r \$0.y;
#X obj 280 165 sig~;
#X obj 332 165 sig~;
#N canvas 0 50 862 852 audio~ 0;
#X obj 73 11 r \$0.speed;
#X obj 124 91 r scale.length;
#X obj 72 127 *;
#X obj 72 149 int;
#X obj 50 266 tabread scale;
#X obj 50 307 sig~;
#X obj 50 329 *~;
#X obj 182 272 r~ tonic;
#X obj 50 572 *~;
#X obj 498 214 line~;
#X obj 50 594 outlet~;
#X obj 50 351 phasor~;
#X obj 50 544 cos~;
#X obj 183 495 *~;
#X obj 183 517 *~;
#X obj 50 504 +~;
#X obj 246 434 r \$0.z;
#X obj 133 224 + 1;
#X obj 201 218 tabread scale;
#X obj 201 240 sig~;
#X obj 183 344 *~;
#X obj 493 105 r \$0.speed;
#X obj 72 201 t f f;
#X msg 497 192 \$1 \, 0 1500;
#X obj 124 113 - 2;
#X obj 72 171 + 1;
#X obj 335 304 r~ tonic;
#X obj 335 348 osc~;
#X obj 464 349 *~;
#X obj 464 371 *~;
#X obj 183 383 phasor~;
#X obj 183 469 cos~;
#X obj 183 405 +~;
#X obj 335 392 *~;
#X obj 499 271 s~ \$0.env;
#X obj 464 321 r~ \$0.env;
#X obj 111 557 r~ \$0.env;
#X obj 289 522 r~ \$0.env;
#X obj 498 236 lop~ 96;
#X obj 497 168 + 0.8;
#X obj 497 144 * 0.2;
#X obj 183 312 *~ 2;
#X obj 335 370 *~ 0.25;
#X obj 245 456 * 0.15;
#X obj 245 478 + 0.25;
#X connect 0 0 2 0;
#X connect 1 0 24 0;
#X connect 2 0 3 0;
#X connect 3 0 25 0;
#X connect 4 0 5 0;
#X connect 5 0 6 0;
#X connect 6 0 11 0;
#X connect 7 0 41 0;
#X connect 8 0 10 0;
#X connect 9 0 38 0;
#X connect 11 0 15 0;
#X connect 12 0 8 0;
#X connect 13 0 14 0;
#X connect 14 0 15 1;
#X connect 15 0 12 0;
#X connect 16 0 43 0;
#X connect 17 0 18 0;
#X connect 18 0 19 0;
#X connect 19 0 20 1;
#X connect 20 0 30 0;
#X connect 21 0 40 0;
#X connect 22 0 4 0;
#X connect 22 1 17 0;
#X connect 23 0 9 0;
#X connect 24 0 2 1;
#X connect 25 0 22 0;
#X connect 26 0 27 0;
#X connect 27 0 42 0;
#X connect 28 0 29 0;
#X connect 28 0 29 1;
#X connect 29 0 33 1;
#X connect 30 0 32 0;
#X connect 31 0 13 0;
#X connect 32 0 31 0;
#X connect 33 0 32 1;
#X connect 35 0 28 0;
#X connect 35 0 28 1;
#X connect 36 0 8 1;
#X connect 37 0 14 1;
#X connect 38 0 34 0;
#X connect 39 0 23 0;
#X connect 40 0 39 0;
#X connect 41 0 6 1;
#X connect 41 0 20 0;
#X connect 42 0 33 0;
#X connect 43 0 44 0;
#X connect 44 0 13 1;
#X restore 242 70 pd audio~;
#X obj 295 248 throw~ blimp-explosion.back.l;
#X obj 321 221 throw~ blimp-explosion.back.r;
#X obj 242 92 *~ 0.2;
#X connect 0 0 9 0;
#X connect 0 1 14 0;
#X connect 0 2 4 0;
#X connect 0 3 3 0;
#X connect 5 0 18 0;
#X connect 8 0 0 0;
#X connect 9 0 10 0;
#X connect 10 0 11 0;
#X connect 11 0 1 0;
#X connect 12 0 13 0;
#X connect 13 0 2 0;
#X connect 14 0 12 0;
#X connect 16 0 7 0;
#X connect 16 1 6 0;
#X connect 16 2 21 0;
#X connect 16 3 22 0;
#X connect 17 0 19 0;
#X connect 18 0 16 1;
#X connect 19 0 16 2;
#X connect 20 0 23 0;
#X connect 23 0 16 0;
