#N canvas 1008 266 430 190 10;
#X declare -path ../util;
#X obj 17 47 r blimp.\$1;
#X obj 17 298 t b;
#X obj 17 320 s \$0.created;
#X obj 63 271 t b;
#X obj 63 293 s \$0.destroyed;
#X obj 110 160 / 640;
#X obj 110 266 s \$0.x;
#X obj 166 160 / 480;
#X obj 166 266 s \$0.y;
#X obj 213 158 s \$0.z;
#X obj 259 131 s \$0.speed;
#X obj 17 77 route created destroyed x y z speed;
#N canvas 1008 46 430 189 audio 1;
#X obj 100 508 cos~;
#X obj 97 75 r \$0.speed;
#X obj 97 147 *;
#X obj 161 145 r scale.length;
#X obj 97 169 int;
#X obj 100 216 tabread scale;
#X obj 132 316 r~ tonic;
#X obj 75 355 *~;
#X obj 418 350 r \$0.created;
#X obj 535 335 r \$0.destroyed;
#X obj 55 654 *~;
#X obj 96 404 phasor~;
#X obj 55 620 *~;
#X obj 100 442 *~;
#X obj 100 464 wrap~;
#X obj 101 485 -~ 0.25;
#X obj 261 238 r \$0.z;
#X obj 261 282 line~;
#X obj 421 415 line~;
#X msg 261 260 \$1 1;
#X obj 296 155 phasor~;
#X obj 97 266 samphold~;
#X obj 100 238 sig~;
#X msg 302 102 \$1 1;
#X obj 302 124 line~;
#X obj 97 97 t f f;
#X obj 261 304 *~;
#X obj 100 564 cos~;
#X obj 101 541 -~ 0.25;
#X obj 445 211 cos~;
#X obj 445 269 +~ 1;
#X obj 261 326 *~;
#X obj 64 702 outlet~;
#X obj 130 337 *~ 1;
#X obj 37 556 -~ 0.25;
#X obj 42 588 cos~;
#X obj 37 534 *~ 0.5;
#X obj 97 191 + 2;
#X obj 445 247 *~ 0.35;
#X obj 202 389 *~ 7;
#X obj 97 288 lop~ 12;
#X obj 201 362 lop~ 24;
#X obj 203 425 +~ 1;
#X obj 347 181 *~ 3;
#X obj 302 80 * 5;
#X msg 421 375 1 150;
#X msg 535 360 0 1000;
#X obj 159 167 / 3;
#X connect 0 0 28 0;
#X connect 1 0 25 0;
#X connect 2 0 4 0;
#X connect 3 0 47 0;
#X connect 4 0 37 0;
#X connect 5 0 22 0;
#X connect 6 0 33 0;
#X connect 7 0 11 0;
#X connect 8 0 45 0;
#X connect 9 0 46 0;
#X connect 10 0 32 0;
#X connect 11 0 13 0;
#X connect 11 0 36 0;
#X connect 12 0 10 0;
#X connect 13 0 14 0;
#X connect 14 0 15 0;
#X connect 15 0 0 0;
#X connect 16 0 19 0;
#X connect 17 0 26 0;
#X connect 17 0 26 1;
#X connect 18 0 10 1;
#X connect 19 0 17 0;
#X connect 20 0 21 1;
#X connect 20 0 43 0;
#X connect 21 0 40 0;
#X connect 22 0 21 0;
#X connect 23 0 24 0;
#X connect 24 0 20 0;
#X connect 25 0 2 0;
#X connect 25 1 44 0;
#X connect 26 0 31 0;
#X connect 27 0 12 1;
#X connect 28 0 27 0;
#X connect 29 0 38 0;
#X connect 30 0 31 1;
#X connect 31 0 41 0;
#X connect 33 0 7 1;
#X connect 34 0 35 0;
#X connect 35 0 12 0;
#X connect 36 0 34 0;
#X connect 37 0 5 0;
#X connect 38 0 30 0;
#X connect 39 0 42 0;
#X connect 40 0 7 0;
#X connect 41 0 39 0;
#X connect 42 0 13 1;
#X connect 43 0 29 0;
#X connect 44 0 23 0;
#X connect 45 0 18 0;
#X connect 46 0 18 0;
#X connect 47 0 2 1;
#X restore 389 103 pd audio;
#X obj 110 182 max 0;
#X obj 110 204 min 1;
#X obj 166 182 max 0;
#X obj 166 204 min 1;
#X obj 385 72 declare -path ../util;
#X obj 388 195 spatializer~;
#X obj 459 127 r \$0.x;
#X msg 459 149 \$1 1;
#X obj 459 171 line~;
#X msg 509 149 \$1 1;
#X obj 509 171 line~;
#X obj 509 127 r \$0.y;
#X obj 468 223 throw~ blimp.back.r;
#X obj 442 250 throw~ blimp.back.l;
#X obj 414 277 throw~ blimp.front.r;
#X obj 387 304 throw~ blimp.front.l;
#X obj 389 125 *~ 0.1;
#X connect 0 0 11 0;
#X connect 1 0 2 0;
#X connect 3 0 4 0;
#X connect 5 0 13 0;
#X connect 7 0 15 0;
#X connect 11 0 1 0;
#X connect 11 1 3 0;
#X connect 11 2 5 0;
#X connect 11 3 7 0;
#X connect 11 4 9 0;
#X connect 11 5 10 0;
#X connect 12 0 29 0;
#X connect 13 0 14 0;
#X connect 14 0 6 0;
#X connect 15 0 16 0;
#X connect 16 0 8 0;
#X connect 18 0 28 0;
#X connect 18 1 27 0;
#X connect 18 2 26 0;
#X connect 18 3 25 0;
#X connect 19 0 20 0;
#X connect 20 0 21 0;
#X connect 21 0 18 1;
#X connect 22 0 23 0;
#X connect 23 0 18 2;
#X connect 24 0 22 0;
#X connect 29 0 18 0;
