#N canvas 0 46 718 852 10;
#X obj 33 33 r pulsar.\$1;
#X obj 33 55 route wobble trigger height;
#X obj 95 82 t b;
#X obj 33 136 s \$0.wobble;
#X obj 95 109 s \$0.trigger;
#X obj 157 82 s \$0.height;
#N canvas 0 50 934 852 audio 0;
#X obj 52 217 r~ tonic;
#X obj 52 361 phasor~;
#X obj 52 383 +~;
#X obj 52 405 cos~;
#X obj 165 332 osc~;
#X obj 466 67 r \$0.wobble;
#X obj 465 207 osc~;
#X msg 466 152 \$1 1;
#X obj 466 174 line~;
#X obj 165 354 *~;
#X msg 523 191 \$1 1;
#X obj 523 213 line~;
#X obj 465 229 *~;
#X obj 541 92 r \$0.height;
#X obj 523 116 *;
#X obj 164 60 line~;
#X obj 164 11 r \$0.trigger;
#X obj 164 82 *~;
#X obj 526 144 * 1.5;
#X obj 465 251 +~ 0.125;
#X obj 526 166 + 0.5;
#X obj 466 89 t f f;
#X obj 278 493 outlet~;
#X obj 635 291 phasor~;
#X obj 635 313 +~;
#X obj 635 335 cos~;
#X obj 685 248 osc~;
#X obj 685 270 *~;
#X obj 636 181 r~ tonic;
#X obj 736 210 r \$0.height;
#X obj 736 254 line~;
#X msg 736 232 \$1 1;
#X obj 52 239 *~ 4;
#X obj 466 123 * 16;
#X obj 685 223 *~ 2;
#X obj 166 306 *~ 1;
#X obj 228 275 osc~;
#X obj 228 297 *~;
#X obj 164 105 lop~ 24;
#X obj 147 384 *~;
#X obj 199 200 *~ 0.75;
#X msg 164 35 0 \, 1 1000;
#X obj 242 129 sig~ 1;
#X obj 242 151 -~;
#X obj 227 249 *~ 1.5;
#X connect 0 0 32 0;
#X connect 1 0 2 0;
#X connect 2 0 3 0;
#X connect 3 0 22 0;
#X connect 4 0 9 0;
#X connect 5 0 21 0;
#X connect 6 0 12 0;
#X connect 7 0 8 0;
#X connect 8 0 6 0;
#X connect 9 0 39 1;
#X connect 10 0 11 0;
#X connect 11 0 12 1;
#X connect 12 0 19 0;
#X connect 13 0 14 1;
#X connect 14 0 18 0;
#X connect 15 0 17 0;
#X connect 15 0 17 1;
#X connect 16 0 41 0;
#X connect 17 0 38 0;
#X connect 18 0 20 0;
#X connect 19 0 9 1;
#X connect 20 0 10 0;
#X connect 21 0 33 0;
#X connect 21 1 14 0;
#X connect 23 0 24 0;
#X connect 24 0 25 0;
#X connect 25 0 22 0;
#X connect 26 0 27 0;
#X connect 27 0 24 1;
#X connect 28 0 23 0;
#X connect 28 0 34 0;
#X connect 29 0 31 0;
#X connect 30 0 27 1;
#X connect 31 0 30 0;
#X connect 32 0 1 0;
#X connect 32 0 35 0;
#X connect 32 0 44 0;
#X connect 33 0 7 0;
#X connect 34 0 26 0;
#X connect 35 0 4 0;
#X connect 36 0 37 0;
#X connect 37 0 2 1;
#X connect 38 0 43 1;
#X connect 38 0 39 0;
#X connect 39 0 2 1;
#X connect 40 0 37 1;
#X connect 41 0 15 0;
#X connect 42 0 43 0;
#X connect 43 0 40 0;
#X connect 44 0 36 0;
#X restore 32 165 pd audio;
#X obj 32 297 throw~ pulsar.front.l;
#X obj 41 277 throw~ pulsar.front.r;
#X obj 51 317 throw~ pulsar.back.r;
#X obj 42 337 throw~ pulsar.back.l;
#X obj 32 187 *~ 0.125;
#X connect 0 0 1 0;
#X connect 1 0 3 0;
#X connect 1 1 2 0;
#X connect 1 2 5 0;
#X connect 2 0 4 0;
#X connect 6 0 11 0;
#X connect 11 0 7 0;
#X connect 11 0 8 0;
#X connect 11 0 9 0;
#X connect 11 0 10 0;
