#N canvas 0 46 934 852 10;
#X obj 334 214 r~ tonic;
#X obj 111 222 sig~;
#X obj 111 244 *~;
#X obj 452 514 line~;
#X msg 511 491 0 1500;
#X obj 114 539 *~;
#X obj 114 601 outlet~;
#X obj 452 417 r \$1.created;
#X obj 511 452 r \$1.destroyed;
#X msg 452 492 1 20;
#X obj 113 77 i \$2;
#X obj 113 193 tabread scale;
#X obj 149 14 r \$1.type;
#X obj 149 36 sel 0 1;
#X obj 112 357 *~ 2;
#X obj 112 379 -~ 1;
#X obj 478 155 r \$1.size;
#X obj 333 336 *~;
#X msg 478 177 \$1 1;
#X obj 478 199 line~;
#X obj 189 132 + \$3;
#X obj 332 241 *~ 4;
#X obj 478 220 *~ 12;
#X obj 432 315 +~;
#X msg 379 99 4 \, 0 250;
#X obj 379 121 line~;
#X obj 379 143 *~;
#X obj 379 77 r \$1.created;
#X msg 189 110 0;
#X obj 114 575 *~ 0.5;
#X obj 114 421 vcf~ 3;
#X obj 114 443 vcf~ 3;
#X obj 113 472 vcf~ 3;
#X obj 113 149 mod 12;
#X obj 113 121 + \$3;
#X obj 118 318 expr~ $v1 > $v2;
#X obj 112 275 phasor~;
#X obj 113 99 + 1;
#X obj 564 323 +~ 0.6;
#X obj 564 301 *~ 0.35;
#X connect 0 0 2 1;
#X connect 0 0 21 0;
#X connect 1 0 2 0;
#X connect 2 0 36 0;
#X connect 3 0 5 1;
#X connect 4 0 3 0;
#X connect 5 0 29 0;
#X connect 7 0 9 0;
#X connect 8 0 4 0;
#X connect 9 0 3 0;
#X connect 10 0 37 0;
#X connect 11 0 1 0;
#X connect 12 0 13 0;
#X connect 13 0 10 0;
#X connect 13 1 28 0;
#X connect 14 0 15 0;
#X connect 15 0 30 0;
#X connect 16 0 18 0;
#X connect 17 0 30 1;
#X connect 17 0 31 1;
#X connect 17 0 32 1;
#X connect 18 0 19 0;
#X connect 19 0 22 0;
#X connect 19 0 39 0;
#X connect 20 0 1 0;
#X connect 21 0 17 0;
#X connect 22 0 23 1;
#X connect 23 0 17 1;
#X connect 24 0 25 0;
#X connect 25 0 26 0;
#X connect 25 0 26 1;
#X connect 26 0 23 0;
#X connect 27 0 24 0;
#X connect 28 0 20 0;
#X connect 29 0 6 0;
#X connect 30 0 31 0;
#X connect 31 0 32 0;
#X connect 32 0 5 0;
#X connect 33 0 11 0;
#X connect 34 0 33 0;
#X connect 35 0 14 0;
#X connect 36 0 35 0;
#X connect 37 0 34 0;
#X connect 38 0 35 1;
#X connect 39 0 38 0;
