#N canvas 0 46 1006 852 10;
#X declare -path ../util;
#X obj 59 38 r pulse.\$1;
#X obj 59 337 t b;
#X obj 101 316 t b;
#X obj 59 60 route created destroyed type x y size;
#X obj 59 364 s \$0.created;
#X obj 101 343 s \$0.destroyed;
#X obj 144 316 s \$0.type;
#X obj 187 289 s \$0.x;
#X obj 229 114 / 480;
#X obj 229 236 s \$0.y;
#X obj 272 86 / 640;
#X obj 272 108 s \$0.size;
#X obj 31 423 pulse-component~ \$0 \$1 0;
#X obj 187 235 max 0;
#X obj 187 257 min 1;
#X obj 229 136 max 0;
#X obj 229 158 min 1;
#X obj 377 165 declare -path ../util;
#X obj 31 634 spatializer~;
#X obj 110 486 r \$0.x;
#X msg 92 588 \$1 1;
#X obj 92 610 line~;
#X obj 172 456 r \$0.y;
#X obj 187 213 / 640;
#X obj 92 530 max 0;
#X obj 92 552 min 1;
#X obj 92 508 -;
#X obj 92 454 r \$0.size;
#X obj 172 478 sig~;
#X obj 281 634 spatializer~;
#X obj 360 486 r \$0.x;
#X msg 342 588 \$1 1;
#X obj 342 610 line~;
#X obj 422 456 r \$0.y;
#X obj 342 530 max 0;
#X obj 342 552 min 1;
#X obj 342 454 r \$0.size;
#X obj 422 478 sig~;
#X obj 281 423 pulse-component~ \$0 \$1 1;
#X obj 342 508 +;
#X obj 531 634 spatializer~;
#X obj 531 423 pulse-component~ \$0 \$1 2;
#X msg 642 578 \$1 1;
#X obj 642 600 line~;
#X obj 642 520 max 0;
#X obj 642 542 min 1;
#X obj 642 498 +;
#X obj 592 480 sig~;
#X obj 592 454 r \$0.x;
#X obj 660 476 r \$0.y;
#X obj 642 456 r \$0.size;
#X obj 751 634 spatializer~;
#X msg 862 578 \$1 1;
#X obj 862 600 line~;
#X obj 862 520 max 0;
#X obj 862 542 min 1;
#X obj 812 480 sig~;
#X obj 812 454 r \$0.x;
#X obj 880 476 r \$0.y;
#X obj 862 456 r \$0.size;
#X obj 751 423 pulse-component~ \$0 \$1 3;
#X obj 862 498 -;
#X obj 111 662 throw~ pulse.back.r;
#X obj 85 689 throw~ pulse.back.l;
#X obj 57 716 throw~ pulse.front.r;
#X obj 30 743 throw~ pulse.front.l;
#X obj 361 663 throw~ pulse.back.r;
#X obj 335 689 throw~ pulse.back.l;
#X obj 307 716 throw~ pulse.front.r;
#X obj 280 743 throw~ pulse.front.l;
#X obj 611 662 throw~ pulse.back.r;
#X obj 585 689 throw~ pulse.back.l;
#X obj 557 716 throw~ pulse.front.r;
#X obj 530 743 throw~ pulse.front.l;
#X obj 831 662 throw~ pulse.back.r;
#X obj 805 689 throw~ pulse.back.l;
#X obj 777 716 throw~ pulse.front.r;
#X obj 750 743 throw~ pulse.front.l;
#X obj 31 445 *~ 0.35;
#X obj 281 445 *~ 0.35;
#X obj 531 445 *~ 0.35;
#X obj 751 445 *~ 0.35;
#X connect 0 0 3 0;
#X connect 1 0 4 0;
#X connect 2 0 5 0;
#X connect 3 0 1 0;
#X connect 3 1 2 0;
#X connect 3 2 6 0;
#X connect 3 3 23 0;
#X connect 3 4 8 0;
#X connect 3 5 10 0;
#X connect 8 0 15 0;
#X connect 10 0 11 0;
#X connect 12 0 78 0;
#X connect 13 0 14 0;
#X connect 14 0 7 0;
#X connect 15 0 16 0;
#X connect 16 0 9 0;
#X connect 18 0 65 0;
#X connect 18 1 64 0;
#X connect 18 2 63 0;
#X connect 18 3 62 0;
#X connect 19 0 26 1;
#X connect 20 0 21 0;
#X connect 21 0 18 1;
#X connect 22 0 28 0;
#X connect 23 0 13 0;
#X connect 24 0 25 0;
#X connect 25 0 20 0;
#X connect 26 0 24 0;
#X connect 27 0 26 0;
#X connect 28 0 18 2;
#X connect 29 0 69 0;
#X connect 29 1 68 0;
#X connect 29 2 67 0;
#X connect 29 3 66 0;
#X connect 30 0 39 1;
#X connect 31 0 32 0;
#X connect 32 0 29 1;
#X connect 33 0 37 0;
#X connect 34 0 35 0;
#X connect 35 0 31 0;
#X connect 36 0 39 0;
#X connect 37 0 29 2;
#X connect 38 0 79 0;
#X connect 39 0 34 0;
#X connect 40 0 73 0;
#X connect 40 1 72 0;
#X connect 40 2 71 0;
#X connect 40 3 70 0;
#X connect 41 0 80 0;
#X connect 42 0 43 0;
#X connect 43 0 40 2;
#X connect 44 0 45 0;
#X connect 45 0 42 0;
#X connect 46 0 44 0;
#X connect 47 0 40 1;
#X connect 48 0 47 0;
#X connect 49 0 46 1;
#X connect 50 0 46 0;
#X connect 51 0 77 0;
#X connect 51 1 76 0;
#X connect 51 2 75 0;
#X connect 51 3 74 0;
#X connect 52 0 53 0;
#X connect 53 0 51 2;
#X connect 54 0 55 0;
#X connect 55 0 52 0;
#X connect 56 0 51 1;
#X connect 57 0 56 0;
#X connect 58 0 61 1;
#X connect 59 0 61 0;
#X connect 60 0 81 0;
#X connect 61 0 54 0;
#X connect 78 0 18 0;
#X connect 79 0 29 0;
#X connect 80 0 40 0;
#X connect 81 0 51 0;
