#N canvas 0 46 718 852 10;
#X declare -path ../util;
#X obj 78 37 r rocket-explosion.\$1;
#X obj 78 64 unpack f f f f;
#X obj 78 242 s \$0.x;
#X obj 119 215 s \$0.y;
#X obj 198 156 s \$0.speed;
#X obj 171 188 s \$0.z;
#N canvas 0 46 718 852 audio 0;
#X obj 73 30 r \$0.speed;
#X obj 90 92 r scale.length;
#X obj 72 146 *;
#X obj 72 168 int;
#X obj 50 265 tabread scale;
#X obj 50 306 sig~;
#X obj 50 328 *~;
#X obj 183 289 r~ tonic;
#X obj 50 511 *~;
#X obj 394 495 line~;
#X obj 50 533 outlet~;
#X obj 50 350 phasor~;
#X obj 50 483 cos~;
#X obj 183 382 osc~;
#X obj 183 404 *~;
#X obj 183 426 *~;
#X obj 50 443 +~;
#X obj 323 387 r \$0.z;
#X obj 119 213 + 1;
#X obj 90 114 - 1;
#X obj 201 217 tabread scale;
#X obj 201 239 sig~;
#X obj 183 343 *~;
#X obj 342 291 r \$0.speed;
#X obj 342 313 t b f;
#X msg 322 345 -0.25;
#X msg 108 302 -0.25;
#X obj 72 52 t f b;
#X obj 394 421 * 0.75;
#X obj 394 442 + 0.25;
#X msg 394 473 \$1 \, 0 1000;
#X obj 72 190 t f f b;
#X obj 326 196 random 2;
#X obj 326 218 + 1;
#X obj 326 240 * 2;
#X obj 183 311 *~;
#X obj 326 262 sig~;
#X connect 0 0 27 0;
#X connect 1 0 19 0;
#X connect 2 0 3 0;
#X connect 3 0 31 0;
#X connect 4 0 5 0;
#X connect 5 0 6 0;
#X connect 6 0 11 0;
#X connect 7 0 35 0;
#X connect 8 0 10 0;
#X connect 9 0 8 1;
#X connect 9 0 15 1;
#X connect 11 0 16 0;
#X connect 12 0 8 0;
#X connect 13 0 14 0;
#X connect 14 0 15 0;
#X connect 15 0 16 1;
#X connect 16 0 12 0;
#X connect 17 0 14 1;
#X connect 18 0 20 0;
#X connect 19 0 2 1;
#X connect 20 0 21 0;
#X connect 21 0 22 1;
#X connect 22 0 13 0;
#X connect 23 0 24 0;
#X connect 24 0 25 0;
#X connect 24 1 28 0;
#X connect 25 0 13 1;
#X connect 26 0 11 1;
#X connect 27 0 2 0;
#X connect 27 1 26 0;
#X connect 28 0 29 0;
#X connect 29 0 30 0;
#X connect 30 0 9 0;
#X connect 31 0 4 0;
#X connect 31 1 18 0;
#X connect 31 2 32 0;
#X connect 32 0 33 0;
#X connect 33 0 34 0;
#X connect 34 0 36 0;
#X connect 35 0 6 1;
#X connect 35 0 22 0;
#X connect 36 0 35 1;
#X restore 304 66 pd audio;
#X obj 302 38 declare -path ../util;
#X obj 305 201 spatializer~;
#X obj 346 133 r \$0.x;
#X msg 346 155 \$1 1;
#X obj 346 177 line~;
#X msg 396 155 \$1 1;
#X obj 396 177 line~;
#X obj 396 133 r \$0.y;
#X obj 119 121 max 0;
#X obj 119 143 min 1;
#X obj 119 99 / 480;
#X obj 69 121 max 0;
#X obj 69 143 min 1;
#X obj 69 99 / 640;
#X obj 385 229 throw~ rocket-explosion.back.r;
#X obj 359 256 throw~ rocket-explosion.back.l;
#X obj 331 283 throw~ rocket-explosion.front.r;
#X obj 304 310 throw~ rocket-explosion.front.l;
#X obj 304 88 *~ 0.25;
#X connect 0 0 1 0;
#X connect 1 0 20 0;
#X connect 1 1 17 0;
#X connect 1 2 5 0;
#X connect 1 3 4 0;
#X connect 6 0 25 0;
#X connect 8 0 24 0;
#X connect 8 1 23 0;
#X connect 8 2 22 0;
#X connect 8 3 21 0;
#X connect 9 0 10 0;
#X connect 10 0 11 0;
#X connect 11 0 8 1;
#X connect 12 0 13 0;
#X connect 13 0 8 2;
#X connect 14 0 12 0;
#X connect 15 0 16 0;
#X connect 16 0 3 0;
#X connect 17 0 15 0;
#X connect 18 0 19 0;
#X connect 19 0 2 0;
#X connect 20 0 18 0;
#X connect 25 0 8 0;
