#N canvas 0 46 1006 852 10;
#X declare -path ../util;
#X obj 35 48 r rocket.\$1;
#X obj 35 75 route created destroyed x y z speed penetrating;
#X obj 35 256 t b;
#X obj 35 278 s \$0.created;
#X obj 81 229 t b;
#X obj 81 251 s \$0.destroyed;
#X obj 128 158 / 640;
#X obj 128 224 s \$0.x;
#X obj 184 158 / 480;
#X obj 184 224 s \$0.y;
#X obj 231 156 s \$0.z;
#X obj 277 129 s \$0.speed;
#X obj 324 102 s \$0.penetrating;
#N canvas 0 50 934 852 audio 0;
#X obj 162 483 cos~;
#X obj 159 50 r \$0.speed;
#X obj 159 122 *;
#X obj 223 120 r scale.length;
#X obj 159 144 int;
#X obj 162 191 tabread scale;
#X obj 193 291 r~ tonic;
#X obj 137 330 *~;
#X obj 458 277 r \$0.created;
#X obj 575 262 r \$0.destroyed;
#X obj 131 570 *~;
#X obj 158 379 phasor~;
#X obj 80 382 sig~ 1;
#X obj 80 404 -~;
#X obj 131 536 *~;
#X obj 162 417 *~;
#X obj 162 439 wrap~;
#X obj 162 461 -~ 0.25;
#X obj 327 239 r \$0.z;
#X obj 327 283 line~;
#X obj 193 312 *~ 2;
#X obj 159 166 + 1;
#X obj 461 342 line~;
#X msg 327 261 \$1 1;
#X obj 368 202 phasor~;
#X obj 159 241 samphold~;
#X obj 162 213 sig~;
#X msg 374 149 \$1 1;
#X obj 374 171 line~;
#X obj 374 127 * 8;
#X obj 221 142 / 3;
#X obj 460 386 lop~ 124;
#X obj 159 263 lop~ 48;
#X obj 159 72 t f f;
#X obj 327 305 *~;
#X obj 265 399 +~ 1;
#X obj 266 340 *~ 8;
#X obj 269 365 +~;
#X obj 460 408 -~ 0.25;
#X obj 134 637 outlet~;
#X obj 460 454 *~ 12;
#X msg 461 302 1 \, 0.65 500;
#X msg 574 287 0 1000;
#X connect 0 0 14 1;
#X connect 1 0 33 0;
#X connect 2 0 4 0;
#X connect 3 0 30 0;
#X connect 4 0 21 0;
#X connect 5 0 26 0;
#X connect 6 0 20 0;
#X connect 7 0 11 0;
#X connect 8 0 41 0;
#X connect 9 0 42 0;
#X connect 10 0 39 0;
#X connect 11 0 13 1;
#X connect 11 0 15 0;
#X connect 12 0 13 0;
#X connect 13 0 14 0;
#X connect 14 0 10 0;
#X connect 15 0 16 0;
#X connect 16 0 17 0;
#X connect 17 0 0 0;
#X connect 18 0 23 0;
#X connect 19 0 34 0;
#X connect 19 0 34 1;
#X connect 20 0 7 1;
#X connect 21 0 5 0;
#X connect 22 0 31 0;
#X connect 23 0 19 0;
#X connect 24 0 25 1;
#X connect 25 0 32 0;
#X connect 26 0 25 0;
#X connect 27 0 28 0;
#X connect 28 0 24 0;
#X connect 29 0 27 0;
#X connect 30 0 2 1;
#X connect 31 0 10 1;
#X connect 31 0 38 0;
#X connect 32 0 7 0;
#X connect 33 0 2 0;
#X connect 33 1 29 0;
#X connect 34 0 36 0;
#X connect 35 0 15 1;
#X connect 36 0 37 0;
#X connect 37 0 35 0;
#X connect 38 0 40 0;
#X connect 40 0 37 1;
#X connect 41 0 22 0;
#X connect 42 0 22 0;
#X restore 490 101 pd audio;
#X obj 485 76 declare -path ../util;
#X obj 488 199 spatializer~;
#X obj 569 131 r \$0.x;
#X msg 569 153 \$1 1;
#X obj 569 175 line~;
#X msg 619 153 \$1 1;
#X obj 619 175 line~;
#X obj 619 131 r \$0.y;
#X obj 128 180 max 0;
#X obj 128 202 min 1;
#X obj 184 180 max 0;
#X obj 184 202 min 1;
#X obj 568 227 throw~ rocket.back.r;
#X obj 542 254 throw~ rocket.back.l;
#X obj 514 281 throw~ rocket.front.r;
#X obj 487 308 throw~ rocket.front.l;
#X obj 490 123 *~ 0.075;
#X connect 0 0 1 0;
#X connect 1 0 2 0;
#X connect 1 1 4 0;
#X connect 1 2 6 0;
#X connect 1 3 8 0;
#X connect 1 4 10 0;
#X connect 1 5 11 0;
#X connect 1 6 12 0;
#X connect 2 0 3 0;
#X connect 4 0 5 0;
#X connect 6 0 22 0;
#X connect 8 0 24 0;
#X connect 13 0 30 0;
#X connect 15 0 29 0;
#X connect 15 1 28 0;
#X connect 15 2 27 0;
#X connect 15 3 26 0;
#X connect 16 0 17 0;
#X connect 17 0 18 0;
#X connect 18 0 15 1;
#X connect 19 0 20 0;
#X connect 20 0 15 2;
#X connect 21 0 19 0;
#X connect 22 0 23 0;
#X connect 23 0 7 0;
#X connect 24 0 25 0;
#X connect 25 0 9 0;
#X connect 30 0 15 0;
