#N canvas 0 46 1006 852 10;
#X obj 105 184 *~;
#X obj 34 184 *~;
#X obj 68 185 *~;
#X obj 141 186 *~;
#X obj 164 145 sig~;
#X obj 44 76 catch~ \$1.back.l;
#X obj 35 26 catch~ \$1.front.l;
#X obj 105 51 catch~ \$1.front.r;
#X obj 115 101 catch~ \$1.back.r;
#X obj 35 297 throw~ front.l;
#X obj 67 275 throw~ back.l;
#X obj 105 247 throw~ front.r;
#X obj 142 225 throw~ back.r;
#X obj 164 123 r \$1.volume;
#X connect 0 0 11 0;
#X connect 1 0 9 0;
#X connect 2 0 10 0;
#X connect 3 0 12 0;
#X connect 4 0 1 1;
#X connect 4 0 2 1;
#X connect 4 0 0 1;
#X connect 4 0 3 1;
#X connect 5 0 2 0;
#X connect 6 0 1 0;
#X connect 7 0 0 0;
#X connect 8 0 3 0;
#X connect 13 0 4 0;
