#N canvas 0 46 646 852 10;
#X obj 72 134 t f b b;
#X obj 72 222 i;
#X obj 107 222 + 1;
#X msg 95 191 0;
#X obj 72 244 t f f;
#X obj 104 266 * 20;
#X obj 72 156 until;
#X obj 83 12 inlet;
#X obj 82 107 i \$2;
#X obj 74 306 pack f f s;
#X msg 74 332 \; pd-collection-\$3 obj 0 \$2 \$3 \$1 \;;
#X obj 201 102 symbol \$1;
#X msg 233 173 \; pd-collection-\$1 clear \;;
#X obj 201 124 t a a;
#N canvas 0 50 862 852 collection-\$1 0;
#X obj 0 0 ../entities/blimp-explosion~ 0;
#X obj 0 20 ../entities/blimp-explosion~ 1;
#X obj 0 40 ../entities/blimp-explosion~ 2;
#X obj 0 60 ../entities/blimp-explosion~ 3;
#X obj 0 80 ../entities/blimp-explosion~ 4;
#X obj 0 100 ../entities/blimp-explosion~ 5;
#X obj 0 120 ../entities/blimp-explosion~ 6;
#X obj 0 140 ../entities/blimp-explosion~ 7;
#X restore 269 64 pd collection-\$1;
#X obj 78 66 sel create destroy;
#X obj 81 39 pack s;
#X connect 0 0 6 0;
#X connect 0 1 3 0;
#X connect 0 2 11 0;
#X connect 1 0 2 0;
#X connect 1 0 4 0;
#X connect 2 0 1 1;
#X connect 3 0 1 1;
#X connect 4 0 9 0;
#X connect 4 1 5 0;
#X connect 5 0 9 1;
#X connect 6 0 1 0;
#X connect 7 0 16 0;
#X connect 8 0 0 0;
#X connect 9 0 10 0;
#X connect 11 0 13 0;
#X connect 13 0 9 2;
#X connect 13 1 12 0;
#X connect 15 0 8 0;
#X connect 15 1 11 0;
#X connect 16 0 15 0;
