#N canvas 0 46 862 852 10;
#X obj 41 60 inlet~ x;
#X obj 117 59 inlet~ y;
#X obj 117 81 -~ \$2;
#X obj 41 82 -~ \$1;
#X obj 41 104 *~;
#X obj 117 103 *~;
#X obj 49 142 +~;
#X obj 49 164 *~ 1024;
#X obj 49 186 tabread~ sqrt;
#X obj 49 208 outlet~;
#X connect 0 0 3 0;
#X connect 1 0 2 0;
#X connect 2 0 5 0;
#X connect 2 0 5 1;
#X connect 3 0 4 0;
#X connect 3 0 4 1;
#X connect 4 0 6 0;
#X connect 5 0 6 1;
#X connect 6 0 7 0;
#X connect 7 0 8 0;
#X connect 8 0 9 0;
