#N canvas 0 46 1006 852 10;
#X obj 18 61 s~ tonic;
#X obj 124 24 loadbang;
#X msg 124 234 0 1 2 3 4 5 6 7 9 10 11 12 13 14 15 16;
#X obj 124 256 s scale;
#X msg 147 183 16;
#X obj 147 205 s scale.length;
#X obj 279 195 table scale;
#X msg 170 134 4;
#X obj 170 156 s octaves;
#X obj 142 80 metro 100;
#X msg 142 48 1;
#X obj 124 107 t b b b b;
#X msg 23 355 1024;
#X obj 23 399 until;
#X obj 23 421 i;
#X obj 58 421 + 1;
#X msg 72 400 0;
#X obj 23 443 t f f;
#X obj 23 485 sqrt;
#X obj 23 507 tabwrite sqrt;
#X obj 15 545 table sqrt 1024;
#X obj 23 377 t f f b;
#X obj 23 465 /;
#X obj 23 327 loadbang;
#X obj 19 38 sig~ 32;
#X connect 1 0 10 0;
#X connect 1 0 11 0;
#X connect 2 0 3 0;
#X connect 4 0 5 0;
#X connect 7 0 8 0;
#X connect 9 0 11 0;
#X connect 10 0 9 0;
#X connect 11 0 2 0;
#X connect 11 1 4 0;
#X connect 11 2 7 0;
#X connect 12 0 21 0;
#X connect 13 0 14 0;
#X connect 14 0 15 0;
#X connect 14 0 17 0;
#X connect 15 0 14 1;
#X connect 16 0 14 1;
#X connect 17 0 22 0;
#X connect 17 1 19 1;
#X connect 18 0 19 0;
#X connect 21 0 13 0;
#X connect 21 1 22 1;
#X connect 21 2 16 0;
#X connect 22 0 18 0;
#X connect 23 0 12 0;
#X connect 24 0 0 0;
