#N canvas 0 46 862 852 10;
#X obj 20 146 outlet~;
#X obj 21 41 inlet~;
#X obj 251 41 inlet;
#X obj 251 68 s \$0.fb;
#X obj 310 41 inlet;
#X obj 310 68 s \$0.filter;
#X obj 179 41 inlet;
#X obj 179 68 s \$0.time;
#X obj 255 915 delwrite~ \$0-a \$1;
#X obj 414 917 delwrite~ \$0-b \$1;
#X obj 599 915 delwrite~ \$0-c \$1;
#X obj 764 915 delwrite~ \$0-d \$1;
#X obj 254 719 vd~ \$0-a;
#X obj 254 747 +~;
#X obj 418 747 -~;
#X obj 614 747 +~;
#X obj 779 747 -~;
#X obj 254 784 +~;
#X obj 764 784 -~;
#X obj 419 784 +~;
#X obj 599 784 -~;
#X obj 419 814 *~;
#X obj 254 814 *~;
#X obj 599 814 *~;
#X obj 764 814 *~;
#X obj 347 254 / 2;
#X obj 283 471 random 10000;
#X obj 283 493 / 10000;
#X obj 299 659 osc~;
#X obj 320 389 random 10000;
#X obj 315 415 / 10000;
#X obj 254 697 +~;
#X obj 479 659 osc~;
#X obj 500 389 random 10000;
#X obj 500 411 / 10000;
#X obj 434 697 +~;
#X obj 659 659 osc~;
#X obj 680 389 random 10000;
#X obj 680 411 / 10000;
#X obj 614 697 +~;
#X obj 839 659 osc~;
#X obj 860 389 random 10000;
#X obj 860 411 / 10000;
#X obj 794 697 +~;
#X obj 794 394 * 0.95;
#X obj 614 394 * 0.85;
#X obj 434 719 vd~ \$0-b;
#X obj 614 719 vd~ \$0-c;
#X obj 794 719 vd~ \$0-d;
#X obj 362 116 loadbang;
#X obj 205 915 *~ 0.5;
#X obj 254 861 lop~;
#X obj 419 861 lop~;
#X obj 599 861 lop~;
#X obj 764 861 lop~;
#X obj 254 372 t f b b;
#X obj 254 394 * 0.65;
#X obj 434 394 * 0.75;
#X obj 434 372 t f b b;
#X obj 614 372 t f b b;
#X obj 794 372 t f b b;
#X obj 283 602 pack;
#X obj 283 624 line~;
#X obj 310 536 random 10000;
#X obj 310 558 + 5000;
#X obj 310 580 t f f;
#X obj 338 616 delay;
#X obj 283 444 t b b;
#X obj 469 472 random 10000;
#X obj 469 494 / 10000;
#X obj 469 603 pack;
#X obj 469 625 line~;
#X obj 496 537 random 10000;
#X obj 496 559 + 5000;
#X obj 496 581 t f f;
#X obj 524 617 delay;
#X obj 469 445 t b b;
#X obj 646 476 random 10000;
#X obj 646 498 / 10000;
#X obj 646 607 pack;
#X obj 646 629 line~;
#X obj 673 541 random 10000;
#X obj 673 563 + 5000;
#X obj 673 585 t f f;
#X obj 701 621 delay;
#X obj 646 449 t b b;
#X obj 804 475 random 10000;
#X obj 804 497 / 10000;
#X obj 804 606 pack;
#X obj 804 628 line~;
#X obj 831 540 random 10000;
#X obj 831 562 + 5000;
#X obj 831 584 t f f;
#X obj 859 620 delay;
#X obj 804 448 t b b;
#X obj 283 515 * 2;
#X obj 469 516 * 2;
#X obj 646 520 * 2;
#X obj 804 519 * 2;
#X obj 299 681 *~ 0.1;
#X obj 479 681 *~ 0.1;
#X obj 659 681 *~ 0.1;
#X obj 839 681 *~ 0.1;
#X obj 254 675 -~ 0.1;
#X obj 434 675 -~ 0.1;
#X obj 614 675 -~ 0.1;
#X obj 794 675 -~ 0.1;
#X obj 254 121 r \$0.time;
#X obj 347 205 r \$0.fb;
#X obj 418 138 r \$0.filter;
#X obj 254 282 t f f f f;
#X obj 347 281 lop~ 128;
#X obj 418 192 t f f f f;
#X obj 254 255 f \$1;
#X obj 347 232 f \$2;
#X obj 418 165 f \$3;
#X obj 254 148 unpack f f f;
#X obj 362 138 t b b b;
#X obj 205 941 s~ \$0.out;
#X obj 265 888 r~ \$0.in;
#X obj 21 68 s~ \$0.in;
#X obj 20 119 r~ \$0.out;
#X connect 1 0 120 0;
#X connect 2 0 3 0;
#X connect 4 0 5 0;
#X connect 6 0 7 0;
#X connect 12 0 13 0;
#X connect 12 0 14 0;
#X connect 13 0 17 0;
#X connect 13 0 20 0;
#X connect 14 0 19 0;
#X connect 14 0 18 0;
#X connect 15 0 20 1;
#X connect 15 0 17 1;
#X connect 16 0 19 1;
#X connect 16 0 18 1;
#X connect 17 0 22 0;
#X connect 18 0 24 0;
#X connect 19 0 21 0;
#X connect 20 0 23 0;
#X connect 21 0 52 0;
#X connect 22 0 51 0;
#X connect 23 0 53 0;
#X connect 24 0 54 0;
#X connect 25 0 111 0;
#X connect 26 0 27 0;
#X connect 27 0 95 0;
#X connect 28 0 99 0;
#X connect 29 0 30 0;
#X connect 30 0 28 1;
#X connect 31 0 12 0;
#X connect 32 0 100 0;
#X connect 33 0 34 0;
#X connect 34 0 32 1;
#X connect 35 0 46 0;
#X connect 36 0 101 0;
#X connect 37 0 38 0;
#X connect 38 0 36 1;
#X connect 39 0 47 0;
#X connect 40 0 102 0;
#X connect 41 0 42 0;
#X connect 42 0 40 1;
#X connect 43 0 48 0;
#X connect 44 0 106 0;
#X connect 45 0 105 0;
#X connect 46 0 14 1;
#X connect 46 0 13 1;
#X connect 47 0 15 0;
#X connect 47 0 16 0;
#X connect 48 0 16 1;
#X connect 48 0 15 1;
#X connect 49 0 117 0;
#X connect 50 0 118 0;
#X connect 51 0 8 0;
#X connect 51 0 50 0;
#X connect 52 0 9 0;
#X connect 53 0 10 0;
#X connect 54 0 11 0;
#X connect 55 0 56 0;
#X connect 55 1 67 0;
#X connect 55 2 29 0;
#X connect 56 0 103 0;
#X connect 57 0 104 0;
#X connect 58 0 57 0;
#X connect 58 1 76 0;
#X connect 58 2 33 0;
#X connect 59 0 45 0;
#X connect 59 1 85 0;
#X connect 59 2 37 0;
#X connect 60 0 44 0;
#X connect 60 1 94 0;
#X connect 60 2 41 0;
#X connect 61 0 62 0;
#X connect 62 0 28 0;
#X connect 63 0 64 0;
#X connect 64 0 65 0;
#X connect 65 0 61 1;
#X connect 65 1 66 0;
#X connect 66 0 67 0;
#X connect 67 0 26 0;
#X connect 67 1 63 0;
#X connect 68 0 69 0;
#X connect 69 0 96 0;
#X connect 70 0 71 0;
#X connect 71 0 32 0;
#X connect 72 0 73 0;
#X connect 73 0 74 0;
#X connect 74 0 70 1;
#X connect 74 1 75 0;
#X connect 75 0 76 0;
#X connect 76 0 68 0;
#X connect 76 1 72 0;
#X connect 77 0 78 0;
#X connect 78 0 97 0;
#X connect 79 0 80 0;
#X connect 80 0 36 0;
#X connect 81 0 82 0;
#X connect 82 0 83 0;
#X connect 83 0 79 1;
#X connect 83 1 84 0;
#X connect 84 0 85 0;
#X connect 85 0 77 0;
#X connect 85 1 81 0;
#X connect 86 0 87 0;
#X connect 87 0 98 0;
#X connect 88 0 89 0;
#X connect 89 0 40 0;
#X connect 90 0 91 0;
#X connect 91 0 92 0;
#X connect 92 0 88 1;
#X connect 92 1 93 0;
#X connect 93 0 94 0;
#X connect 94 0 86 0;
#X connect 94 1 90 0;
#X connect 95 0 61 0;
#X connect 96 0 70 0;
#X connect 97 0 79 0;
#X connect 98 0 88 0;
#X connect 99 0 31 1;
#X connect 100 0 35 1;
#X connect 101 0 39 1;
#X connect 102 0 43 1;
#X connect 103 0 31 0;
#X connect 104 0 35 0;
#X connect 105 0 39 0;
#X connect 106 0 43 0;
#X connect 107 0 116 0;
#X connect 108 0 114 0;
#X connect 109 0 115 0;
#X connect 110 0 55 0;
#X connect 110 1 58 0;
#X connect 110 2 59 0;
#X connect 110 3 60 0;
#X connect 111 0 22 1;
#X connect 111 0 21 1;
#X connect 111 0 23 1;
#X connect 111 0 24 1;
#X connect 112 0 51 1;
#X connect 112 1 52 1;
#X connect 112 2 53 1;
#X connect 112 3 54 1;
#X connect 113 0 110 0;
#X connect 114 0 25 0;
#X connect 115 0 112 0;
#X connect 116 0 113 0;
#X connect 116 1 114 0;
#X connect 116 2 115 0;
#X connect 117 0 113 0;
#X connect 117 1 114 0;
#X connect 117 2 115 0;
#X connect 119 0 8 0;
#X connect 121 0 0 0;
