#N canvas 0 46 862 852 10;
#X obj 106 314 *~;
#X obj 105 371 outlet~ front.l;
#X obj 226 314 *~;
#X obj 225 371 outlet~ front.r;
#X obj 346 314 *~;
#X obj 466 314 *~;
#X obj 345 371 outlet~ back.l;
#X obj 465 371 outlet~ back.r;
#X obj 107 125 inlet~ audio;
#X obj 329 112 inlet~ x;
#X obj 454 108 inlet~ y;
#X obj 292 171 distance~ 0 0;
#X obj 316 206 distance~ 1 0;
#X obj 459 168 distance~ 0 1;
#X obj 463 207 distance~ 1 1;
#X connect 0 0 1 0;
#X connect 2 0 3 0;
#X connect 4 0 6 0;
#X connect 5 0 7 0;
#X connect 8 0 0 0;
#X connect 8 0 2 0;
#X connect 8 0 4 0;
#X connect 8 0 5 0;
#X connect 9 0 11 0;
#X connect 9 0 12 0;
#X connect 9 0 13 0;
#X connect 9 0 14 0;
#X connect 10 0 11 1;
#X connect 10 0 12 1;
#X connect 10 0 13 1;
#X connect 10 0 14 1;
#X connect 11 0 0 1;
#X connect 12 0 2 1;
#X connect 13 0 4 1;
#X connect 14 0 5 1;
